<?xml version="1.0" encoding="utf-8"?>
<!-- Svg Vector Icons : http://www.onlinewebfonts.com/icon -->
<!DOCTYPE svg PUBLIC "-//W3C//DTD SVG 1.1//EN" "http://www.w3.org/Graphics/SVG/1.1/DTD/svg11.dtd">
<svg version="1.1" xmlns="http://www.w3.org/2000/svg" xmlns:xlink="http://www.w3.org/1999/xlink" x="0px" y="0px" viewBox="0 0 256 256" enable-background="new 0 0 256 256" xml:space="preserve">
<metadata> Svg Vector Icons : http://www.onlinewebfonts.com/icon </metadata>
<g><g><g><path fill="#000000" d="M117.9,23.8c-0.6,1.1-2.3,3.6-3.6,5.7c-1.9,3-2.5,4.4-3.1,7.5C108.1,53.5,99.7,71.3,87.9,86c-2.1,2.7-7.3,8.4-11.5,12.7c-8.7,9-12.2,13.2-16.7,20.1c-13.9,21.3-17.4,47.5-9.3,70.6c5.4,15.5,15.1,27.5,28.6,35.2c9,5.2,20.8,8.4,33.2,9.3l4.6,0.3l-3.2-2.4c-1.8-1.3-5.2-4.4-7.7-6.9c-10.7-10.8-17-24.9-18.8-42.1c-0.6-5.8-0.6-20.8,0-26.6c0.9-8.7,3.8-19.2,8-29.4c1-2.3,4.5-10,7.9-17.1c7.3-15.4,10.1-22,13.2-31.5c4-12.3,6.6-24.3,8.1-36.5c1.1-9.1,1.1-9.1-2.1-14.9c-1.5-2.7-2.9-5-2.9-5C119.1,21.8,118.5,22.7,117.9,23.8z"/><path fill="#000000" d="M134.1,26.6c-3.3,5.5-3.3,5.5-2.1,15.6c1.8,15.5,6.1,32.5,12.3,48c1.2,3.2,4.6,10.5,7.4,16.4c12.4,25.8,16,36.4,17.5,50.4c0.7,7.1,0.3,25.2-0.7,30.8c-3.6,19.3-11.7,33.2-26.1,44.2l-3,2.3l4.6-0.3c27-1.9,47.4-14.4,57.9-35.3c10.8-21.5,10.8-48.5-0.2-70.8c-5-10.3-9.8-16.6-22.4-29.5c-4.7-4.8-10.1-10.9-12-13.4c-11.9-15.5-19.4-31.5-23.7-50.1c-0.8-3.7-1.4-5-3.8-8.7l-2.8-4.3L134.1,26.6z"/><path fill="#000000" d="M97.5,28.6c-0.5,6-3.1,13.8-6.7,20.2c-5.3,9.3-13.1,16.4-25.3,23.3C57,77,51.5,80.5,45.5,85c-22.6,17-34.2,38.5-35.4,65.9c-0.9,21.4,5.8,39,20.6,53.7c8.2,8.1,16.7,13.9,27.6,18.7c4.8,2.1,14,5.4,14.3,5.2c0.1-0.1-1.4-1.3-3.4-2.7c-22.8-16.2-33.7-48.3-27.3-80c1.4-6.8,3.9-13.9,7.4-20.9c5.5-11.1,10.6-17.8,22.9-30.6C80.6,85.4,85,80,89.9,72.3c5.9-9.4,11.9-22.7,15-33.3l1.4-4.8l-4-4.4c-2.2-2.4-4.2-4.5-4.3-4.6C97.9,25.1,97.6,26.6,97.5,28.6z"/><path fill="#000000" d="M153.8,29.7l-4,4.5l1.6,5.4c4.4,14.6,11.9,29.4,20.7,41.2c2,2.7,7.4,8.7,11.9,13.3c4.4,4.6,9.4,10,11,12c17.3,21.4,24.3,47,19.9,72.6c-3.4,19.8-13.5,36.8-27.9,47c-1.9,1.4-3.5,2.6-3.4,2.7c0.3,0.3,9.4-3,14.3-5.2c18.4-8.1,33.2-21.4,41-36.8c2.4-4.8,5.2-13.2,6.2-18.8c1.2-6.7,1.1-20.9-0.3-28.8c-3.1-18-11.4-33.2-24.9-46c-7.8-7.3-15.7-12.8-32.4-22.5c-15.4-9-25-21.6-28.4-37.7c-0.4-1.8-0.7-4.2-0.7-5.4c0-1.2-0.1-2.2-0.3-2.2C158,25.1,156,27.2,153.8,29.7z"/><path fill="#000000" d="M127,62.1c-1.3,6-4.7,17.6-6.9,23.7c-3.1,8.4-5,12.8-11,25.3c-13.5,28-16.6,38.9-16.6,58.2c0,23.3,5.9,39.9,18.7,52.4c3.9,3.8,9.2,7.8,13.9,10.3l2.9,1.7l3.5-2c8-4.5,16.2-12,20.9-18.9c8.2-12.1,11.7-27.3,11.1-47.5c-0.6-16.8-3.5-26.9-14-49.1c-7-14.6-10.3-22.2-13-29.4c-2.6-7.1-6-18.4-7.2-24.5c-0.5-2.2-1-4-1.1-4S127.5,60,127,62.1z"/></g></g></g>
</svg>