<?xml version="1.0" encoding="UTF-8" standalone="no"?>
<!-- Created with Inkscape (http://www.inkscape.org/) -->

<svg
   width="63.792439mm"
   height="58.299576mm"
   viewBox="0 0 63.792439 58.299576"
   version="1.1"
   id="svg5"
   xml:space="preserve"
   xmlns:inkscape="http://www.inkscape.org/namespaces/inkscape"
   xmlns:sodipodi="http://sodipodi.sourceforge.net/DTD/sodipodi-0.dtd"
   xmlns="http://www.w3.org/2000/svg"
   xmlns:svg="http://www.w3.org/2000/svg"><sodipodi:namedview
     id="namedview7"
     pagecolor="#ffffff"
     bordercolor="#000000"
     borderopacity="0.25"
     inkscape:showpageshadow="2"
     inkscape:pageopacity="0.0"
     inkscape:pagecheckerboard="0"
     inkscape:deskcolor="#d1d1d1"
     inkscape:document-units="mm"
     showgrid="false"
     inkscape:zoom="0.76880612"
     inkscape:cx="-145.03006"
     inkscape:cy="589.22528"
     inkscape:window-width="1920"
     inkscape:window-height="1017"
     inkscape:window-x="-8"
     inkscape:window-y="-8"
     inkscape:window-maximized="1"
     inkscape:current-layer="layer1" /><defs
     id="defs2" /><g
     inkscape:label="Layer 1"
     inkscape:groupmode="layer"
     id="layer1"
     transform="translate(-18.698689,-69.06632)"><g
       id="g194"
       transform="matrix(0.26458333,0,0,0.26458333,16.729627,64.546524)"
       style="fill:#aaaaaa;fill-opacity:1;stroke:#000000;stroke-width:5.15906;stroke-dasharray:none;stroke-opacity:1"
       inkscape:export-filename="onion_disabled"
       inkscape:export-xdpi="96"
       inkscape:export-ydpi="96"><path
         fill="#000000"
         d="m 117.9,23.8 c -0.6,1.1 -2.3,3.6 -3.6,5.7 -1.9,3 -2.5,4.4 -3.1,7.5 -3.1,16.5 -11.5,34.3 -23.3,49 -2.1,2.7 -7.3,8.4 -11.5,12.7 -8.7,9 -12.2,13.2 -16.7,20.1 -13.9,21.3 -17.4,47.5 -9.3,70.6 5.4,15.5 15.1,27.5 28.6,35.2 9,5.2 20.8,8.4 33.2,9.3 l 4.6,0.3 -3.2,-2.4 c -1.8,-1.3 -5.2,-4.4 -7.7,-6.9 -10.7,-10.8 -17,-24.9 -18.8,-42.1 -0.6,-5.8 -0.6,-20.8 0,-26.6 0.9,-8.7 3.8,-19.2 8,-29.4 1,-2.3 4.5,-10 7.9,-17.1 7.3,-15.4 10.1,-22 13.2,-31.5 4,-12.3 6.6,-24.3 8.1,-36.5 1.1,-9.1 1.1,-9.1 -2.1,-14.9 -1.5,-2.7 -2.9,-5 -2.9,-5 -0.2,0 -0.8,0.9 -1.4,2 z"
         id="path184"
         style="fill:#aaaaaa;fill-opacity:1;stroke:#000000;stroke-width:5.15906;stroke-dasharray:none;stroke-opacity:1" /><path
         fill="#000000"
         d="m 134.1,26.6 c -3.3,5.5 -3.3,5.5 -2.1,15.6 1.8,15.5 6.1,32.5 12.3,48 1.2,3.2 4.6,10.5 7.4,16.4 12.4,25.8 16,36.4 17.5,50.4 0.7,7.1 0.3,25.2 -0.7,30.8 -3.6,19.3 -11.7,33.2 -26.1,44.2 l -3,2.3 4.6,-0.3 c 27,-1.9 47.4,-14.4 57.9,-35.3 10.8,-21.5 10.8,-48.5 -0.2,-70.8 -5,-10.3 -9.8,-16.6 -22.4,-29.5 -4.7,-4.8 -10.1,-10.9 -12,-13.4 -11.9,-15.5 -19.4,-31.5 -23.7,-50.1 -0.8,-3.7 -1.4,-5 -3.8,-8.7 L 137,21.9 Z"
         id="path186"
         style="fill:#aaaaaa;fill-opacity:1;stroke:#000000;stroke-width:5.15906;stroke-dasharray:none;stroke-opacity:1" /><path
         fill="#000000"
         d="m 97.5,28.6 c -0.5,6 -3.1,13.8 -6.7,20.2 -5.3,9.3 -13.1,16.4 -25.3,23.3 -8.5,4.9 -14,8.4 -20,12.9 -22.6,17 -34.2,38.5 -35.4,65.9 -0.9,21.4 5.8,39 20.6,53.7 8.2,8.1 16.7,13.9 27.6,18.7 4.8,2.1 14,5.4 14.3,5.2 0.1,-0.1 -1.4,-1.3 -3.4,-2.7 -22.8,-16.2 -33.7,-48.3 -27.3,-80 1.4,-6.8 3.9,-13.9 7.4,-20.9 5.5,-11.1 10.6,-17.8 22.9,-30.6 8.4,-8.9 12.8,-14.3 17.7,-22 5.9,-9.4 11.9,-22.7 15,-33.3 l 1.4,-4.8 -4,-4.4 c -2.2,-2.4 -4.2,-4.5 -4.3,-4.6 -0.1,-0.1 -0.4,1.4 -0.5,3.4 z"
         id="path188"
         style="fill:#aaaaaa;fill-opacity:1;stroke:#000000;stroke-width:5.15906;stroke-dasharray:none;stroke-opacity:1" /><path
         fill="#000000"
         d="m 153.8,29.7 -4,4.5 1.6,5.4 c 4.4,14.6 11.9,29.4 20.7,41.2 2,2.7 7.4,8.7 11.9,13.3 4.4,4.6 9.4,10 11,12 17.3,21.4 24.3,47 19.9,72.6 -3.4,19.8 -13.5,36.8 -27.9,47 -1.9,1.4 -3.5,2.6 -3.4,2.7 0.3,0.3 9.4,-3 14.3,-5.2 18.4,-8.1 33.2,-21.4 41,-36.8 2.4,-4.8 5.2,-13.2 6.2,-18.8 1.2,-6.7 1.1,-20.9 -0.3,-28.8 -3.1,-18 -11.4,-33.2 -24.9,-46 -7.8,-7.3 -15.7,-12.8 -32.4,-22.5 -15.4,-9 -25,-21.6 -28.4,-37.7 -0.4,-1.8 -0.7,-4.2 -0.7,-5.4 0,-1.2 -0.1,-2.2 -0.3,-2.2 -0.1,0.1 -2.1,2.2 -4.3,4.7 z"
         id="path190"
         style="fill:#aaaaaa;fill-opacity:1;stroke:#000000;stroke-width:5.15906;stroke-dasharray:none;stroke-opacity:1" /><path
         fill="#000000"
         d="m 127,62.1 c -1.3,6 -4.7,17.6 -6.9,23.7 -3.1,8.4 -5,12.8 -11,25.3 -13.5,28 -16.6,38.9 -16.6,58.2 0,23.3 5.9,39.9 18.7,52.4 3.9,3.8 9.2,7.8 13.9,10.3 l 2.9,1.7 3.5,-2 c 8,-4.5 16.2,-12 20.9,-18.9 8.2,-12.1 11.7,-27.3 11.1,-47.5 -0.6,-16.8 -3.5,-26.9 -14,-49.1 -7,-14.6 -10.3,-22.2 -13,-29.4 -2.6,-7.1 -6,-18.4 -7.2,-24.5 -0.5,-2.2 -1,-4 -1.1,-4 -0.1,0 -0.7,1.7 -1.2,3.8 z"
         id="path192"
         style="fill:#aaaaaa;fill-opacity:1;stroke:#000000;stroke-width:5.15906;stroke-dasharray:none;stroke-opacity:1" /></g></g></svg>
